<svg preserveAspectRatio="none" width="20" height="18" viewBox="0 0 20 18" fill="none" xmlns="http://www.w3.org/2000/svg">
<path d="M5.57552 13.4598H13.8776C14.8854 13.4598 15.3845 12.9607 15.3845 11.9721V6.11268C15.3845 5.12411 14.8854 4.62502 13.8776 4.62502H5.57552C4.57256 4.62502 4.06867 5.11931 4.06867 6.11268V11.9721C4.06867 12.9655 4.57256 13.4598 5.57552 13.4598ZM5.58512 12.6872C5.10523 12.6872 4.84129 12.4328 4.84129 11.9337V6.15107C4.84129 5.65199 5.10523 5.39764 5.58512 5.39764H7.72543V12.6872H5.58512ZM13.868 5.39764C14.3431 5.39764 14.6118 5.65199 14.6118 6.15107V11.9337C14.6118 12.4328 14.3431 12.6872 13.868 12.6872H8.47885V5.39764H13.868ZM6.79924 7.17803C6.94801 7.17803 7.07278 7.04846 7.07278 6.90929C7.07278 6.76533 6.94801 6.64056 6.79924 6.64056H5.77228C5.62831 6.64056 5.49874 6.76533 5.49874 6.90929C5.49874 7.04846 5.62831 7.17803 5.77228 7.17803H6.79924ZM6.79924 8.42094C6.94801 8.42094 7.07278 8.29137 7.07278 8.14741C7.07278 8.00344 6.94801 7.88347 6.79924 7.88347H5.77228C5.62831 7.88347 5.49874 8.00344 5.49874 8.14741C5.49874 8.29137 5.62831 8.42094 5.77228 8.42094H6.79924ZM6.79924 9.65906C6.94801 9.65906 7.07278 9.53909 7.07278 9.39512C7.07278 9.25115 6.94801 9.12638 6.79924 9.12638H5.77228C5.62831 9.12638 5.49874 9.25115 5.49874 9.39512C5.49874 9.53909 5.62831 9.65906 5.77228 9.65906H6.79924Z" fill="#737373"/>
</svg>
