<svg preserveAspectRatio="none" width="20" height="17" viewBox="0 0 20 17" fill="none" xmlns="http://www.w3.org/2000/svg">
<path d="M9.53906 13.0742C9.61584 13.0742 9.74062 13.0454 9.86059 12.9782C12.5912 11.4473 13.5269 10.7995 13.5269 9.04788V5.37673C13.5269 4.87285 13.311 4.71449 12.9031 4.54173C12.3368 4.30658 10.5084 3.64913 9.94217 3.45238C9.8126 3.40919 9.67343 3.38039 9.53906 3.38039C9.40469 3.38039 9.26553 3.41879 9.14075 3.45238C8.57449 3.61554 6.74131 4.31138 6.17504 4.54173C5.77193 4.70969 5.55119 4.87285 5.55119 5.37673V9.04788C5.55119 10.7995 6.49177 11.4425 9.21754 12.9782C9.34231 13.0454 9.46228 13.0742 9.53906 13.0742ZM9.73102 4.19621C10.4557 4.48414 11.8617 4.99282 12.6056 5.24716C12.7351 5.29515 12.7639 5.36234 12.7639 5.5255V8.87032C12.7639 10.3532 12.0537 10.7419 9.83659 12.0904C9.69743 12.1768 9.62064 12.2008 9.54386 12.2056V4.15302C9.59185 4.15302 9.65424 4.16741 9.73102 4.19621Z" fill="#737373"/>
</svg>
