<svg preserveAspectRatio="none" width="20" height="17" viewBox="0 0 20 17" fill="none" xmlns="http://www.w3.org/2000/svg">
<path d="M11.1371 12.1336L7.33157 8.41923C7.24039 8.32805 7.19241 8.21767 7.19241 8.0977C7.19241 7.97293 7.24519 7.85296 7.33637 7.77618L11.1371 4.05704C11.2187 3.97546 11.3242 3.92747 11.449 3.92747C11.6986 3.92747 11.8857 4.11942 11.8857 4.36897C11.8857 4.48414 11.8377 4.59931 11.7609 4.68089L8.26736 8.0977L11.7609 11.5145C11.8377 11.5961 11.8857 11.7065 11.8857 11.8264C11.8857 12.076 11.6986 12.2631 11.449 12.2631C11.3242 12.2631 11.2187 12.2151 11.1371 12.1336Z" fill="#737373"/>
</svg>
