<svg preserveAspectRatio="none" width="20" height="17" viewBox="0 0 20 17" fill="none" xmlns="http://www.w3.org/2000/svg">
<path d="M7.70723 12.2679C7.832 12.2679 7.93758 12.2199 8.01916 12.1384L11.8247 8.41923C11.9159 8.32805 11.9638 8.21767 11.9638 8.0977C11.9638 7.97293 11.9159 7.85776 11.8247 7.77618L8.02396 4.06184C7.93758 3.97546 7.832 3.92747 7.70723 3.92747C7.45769 3.92747 7.27053 4.11942 7.27053 4.36897C7.27053 4.48414 7.31852 4.59931 7.3953 4.68089L10.8889 8.0977L7.3953 11.5145C7.31852 11.5961 7.27053 11.7065 7.27053 11.8264C7.27053 12.076 7.45769 12.2679 7.70723 12.2679Z" fill="#BFBFBF"/>
</svg>
