<svg preserveAspectRatio="none" width="5" height="8" viewBox="0 0 5 8" fill="none" xmlns="http://www.w3.org/2000/svg">
<path d="M0.650391 7.24196H3.87524C4.31223 7.24196 4.52563 7.02516 4.52563 6.55092V4.06453C4.52563 3.63771 4.34949 3.41753 3.98703 3.38026V2.52663C3.98703 1.24956 3.15033 0.633041 2.26282 0.633041C1.37531 0.633041 0.538605 1.24956 0.538605 2.52663V3.3972C0.206635 3.44801 0 3.66481 0 4.06453V6.55092C0 7.02516 0.213409 7.24196 0.650391 7.24196ZM1.08398 2.45549C1.08398 1.60524 1.62936 1.15471 2.26282 1.15471C2.89627 1.15471 3.44165 1.60524 3.44165 2.45549V3.37688L1.08398 3.38026V2.45549Z" fill="#9E9E9E"/>
</svg>
