<svg preserveAspectRatio="none" width="7" height="8" viewBox="0 0 7 8" fill="none" xmlns="http://www.w3.org/2000/svg">
<path d="M3.22623 3.77756C3.31091 3.77756 3.37527 3.75046 3.4227 3.69965L4.81833 2.29725C4.8793 2.23966 4.90302 2.17191 4.90302 2.094C4.90302 2.01947 4.87253 1.94495 4.81833 1.89075L3.4227 0.474796C3.37527 0.420597 3.30753 0.393497 3.22623 0.393497C3.07379 0.393497 2.95862 0.515446 2.95862 0.671268C2.95862 0.742405 2.98572 0.810154 3.03314 0.864353L3.93759 1.75187C3.74451 1.71799 3.54803 1.69767 3.35156 1.69767C1.69171 1.69767 0.357056 3.02893 0.357056 4.68879C0.357056 6.35202 1.69171 7.68668 3.35156 7.68668C5.01141 7.68668 6.34268 6.35202 6.34268 4.68879C6.34268 4.52619 6.22751 4.40763 6.06152 4.40763C5.90231 4.40763 5.7973 4.52619 5.7973 4.68879C5.7973 6.05054 4.70993 7.1413 3.35156 7.1413C1.99319 7.1413 0.902435 6.05054 0.902435 4.68879C0.902435 3.33042 1.99319 2.24305 3.35156 2.24305C3.60901 2.24305 3.84613 2.26337 4.04938 2.30741L3.03653 3.31348C2.98572 3.36768 2.95862 3.43543 2.95862 3.50657C2.95862 3.66239 3.07379 3.77756 3.22623 3.77756Z" fill="#797979"/>
</svg>
